<?xml version="1.0" encoding="utf-8"?>
<!-- Generator: Adobe Illustrator 17.1.0, SVG Export Plug-In . SVG Version: 6.00 Build 0)  -->
<!DOCTYPE svg PUBLIC "-//W3C//DTD SVG 1.1//EN" "http://www.w3.org/Graphics/SVG/1.1/DTD/svg11.dtd">
<svg version="1.1" id="Layer_1" xmlns="http://www.w3.org/2000/svg" xmlns:xlink="http://www.w3.org/1999/xlink" x="0px" y="0px"
	 viewBox="0 0 23 21" enable-background="new 0 0 23 21" xml:space="preserve">
<g>
	<g>
		<defs>
			<rect id="SVGID_1_" width="23" height="21"/>
		</defs>
		<clipPath id="SVGID_2_">
			<use xlink:href="#SVGID_1_"  overflow="visible"/>
		</clipPath>
		<path clip-path="url(#SVGID_2_)" fill="#5D5D5D" d="M20.4,5.7c-0.4,0-0.6,0.3-0.6,0.6v11.3c0,1.2-1,2.2-2.2,2.2h-14
			c-1.2,0-2.2-1-2.2-2.2V4c0-1.2,1-2.2,2.2-2.2h14c0.4,0,0.6-0.3,0.6-0.6c0-0.3-0.3-0.6-0.6-0.6h-14C1.6,0.6,0,2.2,0,4v13.6
			C0,19.5,1.6,21,3.5,21h14c1.9,0,3.5-1.5,3.5-3.4V6.3C21,6,20.8,5.7,20.4,5.7L20.4,5.7z M20.4,5.7"/>
		<path clip-path="url(#SVGID_2_)" fill="#5D5D5D" d="M22.8,0.2c-0.2-0.2-0.7-0.2-0.9,0L9,12.6L5.8,9.5c-0.2-0.2-0.7-0.2-0.9,0
			c-0.2,0.2-0.2,0.6,0,0.9l3.7,3.5C8.7,14,8.9,14.1,9,14.1s0.3-0.1,0.5-0.2c0,0,0,0,0,0L22.8,1.1C23,0.8,23,0.4,22.8,0.2L22.8,0.2z
			 M22.8,0.2"/>
	</g>
</g>
</svg>
