<?xml version="1.0" encoding="utf-8"?>
<!-- Generator: Adobe Illustrator 17.1.0, SVG Export Plug-In . SVG Version: 6.00 Build 0)  -->
<!DOCTYPE svg PUBLIC "-//W3C//DTD SVG 1.1//EN" "http://www.w3.org/Graphics/SVG/1.1/DTD/svg11.dtd">
<svg version="1.1" id="Layer_1" xmlns="http://www.w3.org/2000/svg" xmlns:xlink="http://www.w3.org/1999/xlink" x="0px" y="0px"
	 viewBox="0 0 26 26" enable-background="new 0 0 26 26" xml:space="preserve">
<g>
	<path fill="#5D5D5D" d="M8.6,11.4c0,0.3-0.2,0.5-0.5,0.5c-0.3,0-0.5-0.2-0.5-0.5s0.2-0.5,0.5-0.5C8.4,10.8,8.6,11.1,8.6,11.4
		L8.6,11.4z M8.6,11.4"/>
	<path fill="#5D5D5D" d="M11.9,11.4c0,0.3-0.2,0.5-0.5,0.5c-0.3,0-0.5-0.2-0.5-0.5s0.2-0.5,0.5-0.5C11.6,10.8,11.9,11.1,11.9,11.4
		L11.9,11.4z M11.9,11.4"/>
	<path fill="#5D5D5D" d="M15.1,11.4c0,0.3-0.2,0.5-0.5,0.5c-0.3,0-0.5-0.2-0.5-0.5s0.2-0.5,0.5-0.5C14.8,10.8,15.1,11.1,15.1,11.4
		L15.1,11.4z M15.1,11.4"/>
	<path fill="#5D5D5D" d="M5.4,14.6c0,0.3-0.2,0.5-0.5,0.5c-0.3,0-0.5-0.2-0.5-0.5s0.2-0.5,0.5-0.5C5.1,14.1,5.4,14.3,5.4,14.6
		L5.4,14.6z M5.4,14.6"/>
	<path fill="#5D5D5D" d="M8.6,14.6c0,0.3-0.2,0.5-0.5,0.5c-0.3,0-0.5-0.2-0.5-0.5s0.2-0.5,0.5-0.5C8.4,14.1,8.6,14.3,8.6,14.6
		L8.6,14.6z M8.6,14.6"/>
	<path fill="#5D5D5D" d="M11.9,14.6c0,0.3-0.2,0.5-0.5,0.5c-0.3,0-0.5-0.2-0.5-0.5s0.2-0.5,0.5-0.5C11.6,14.1,11.9,14.3,11.9,14.6
		L11.9,14.6z M11.9,14.6"/>
	<path fill="#5D5D5D" d="M15.1,14.6c0,0.3-0.2,0.5-0.5,0.5c-0.3,0-0.5-0.2-0.5-0.5s0.2-0.5,0.5-0.5C14.8,14.1,15.1,14.3,15.1,14.6
		L15.1,14.6z M15.1,14.6"/>
	<path fill="#5D5D5D" d="M21.5,14.6c0,0.3-0.2,0.5-0.5,0.5c-0.3,0-0.5-0.2-0.5-0.5s0.2-0.5,0.5-0.5C21.3,14.1,21.5,14.3,21.5,14.6
		L21.5,14.6z M21.5,14.6"/>
	<path fill="#5D5D5D" d="M18.3,11.4c0,0.3-0.2,0.5-0.5,0.5c-0.3,0-0.5-0.2-0.5-0.5s0.2-0.5,0.5-0.5C18.1,10.8,18.3,11.1,18.3,11.4
		L18.3,11.4z M18.3,11.4"/>
	<path fill="#5D5D5D" d="M21.5,11.4c0,0.3-0.2,0.5-0.5,0.5c-0.3,0-0.5-0.2-0.5-0.5s0.2-0.5,0.5-0.5C21.3,10.8,21.5,11.1,21.5,11.4
		L21.5,11.4z M21.5,11.4"/>
	<path fill="#5D5D5D" d="M5.4,17.8c0,0.3-0.2,0.5-0.5,0.5c-0.3,0-0.5-0.2-0.5-0.5c0-0.3,0.2-0.5,0.5-0.5C5.1,17.3,5.4,17.5,5.4,17.8
		L5.4,17.8z M5.4,17.8"/>
	<path fill="#5D5D5D" d="M8.6,17.8c0,0.3-0.2,0.5-0.5,0.5c-0.3,0-0.5-0.2-0.5-0.5c0-0.3,0.2-0.5,0.5-0.5C8.4,17.3,8.6,17.5,8.6,17.8
		L8.6,17.8z M8.6,17.8"/>
	<path fill="#5D5D5D" d="M11.9,17.8c0,0.3-0.2,0.5-0.5,0.5c-0.3,0-0.5-0.2-0.5-0.5c0-0.3,0.2-0.5,0.5-0.5
		C11.6,17.3,11.9,17.5,11.9,17.8L11.9,17.8z M11.9,17.8"/>
	<path fill="#5D5D5D" d="M15.1,17.8c0,0.3-0.2,0.5-0.5,0.5c-0.3,0-0.5-0.2-0.5-0.5c0-0.3,0.2-0.5,0.5-0.5
		C14.8,17.3,15.1,17.5,15.1,17.8L15.1,17.8z M15.1,17.8"/>
	<path fill="#5D5D5D" d="M18.3,17.8c0,0.3-0.2,0.5-0.5,0.5c-0.3,0-0.5-0.2-0.5-0.5c0-0.3,0.2-0.5,0.5-0.5
		C18.1,17.3,18.3,17.5,18.3,17.8L18.3,17.8z M18.3,17.8"/>
	<path fill="#5D5D5D" d="M21.5,17.8c0,0.3-0.2,0.5-0.5,0.5c-0.3,0-0.5-0.2-0.5-0.5c0-0.3,0.2-0.5,0.5-0.5
		C21.3,17.3,21.5,17.5,21.5,17.8L21.5,17.8z M21.5,17.8"/>
	<path fill="#5D5D5D" d="M5.4,21.1c0,0.3-0.2,0.5-0.5,0.5c-0.3,0-0.5-0.2-0.5-0.5c0-0.3,0.2-0.5,0.5-0.5C5.1,20.5,5.4,20.8,5.4,21.1
		L5.4,21.1z M5.4,21.1"/>
	<path fill="#5D5D5D" d="M8.6,21.1c0,0.3-0.2,0.5-0.5,0.5c-0.3,0-0.5-0.2-0.5-0.5c0-0.3,0.2-0.5,0.5-0.5C8.4,20.5,8.6,20.8,8.6,21.1
		L8.6,21.1z M8.6,21.1"/>
	<path fill="#5D5D5D" d="M11.9,21.1c0,0.3-0.2,0.5-0.5,0.5c-0.3,0-0.5-0.2-0.5-0.5c0-0.3,0.2-0.5,0.5-0.5
		C11.6,20.5,11.9,20.8,11.9,21.1L11.9,21.1z M11.9,21.1"/>
	<path fill="#5D5D5D" d="M15.1,21.1c0,0.3-0.2,0.5-0.5,0.5c-0.3,0-0.5-0.2-0.5-0.5c0-0.3,0.2-0.5,0.5-0.5
		C14.8,20.5,15.1,20.8,15.1,21.1L15.1,21.1z M15.1,21.1"/>
	<g>
		<defs>
			<rect id="SVGID_1_" y="0.1" width="26" height="25.8"/>
		</defs>
		<clipPath id="SVGID_2_">
			<use xlink:href="#SVGID_1_"  overflow="visible"/>
		</clipPath>
		<path clip-path="url(#SVGID_2_)" fill="#5D5D5D" d="M17.8,16.2c0.9,0,1.6-0.7,1.6-1.6c0-0.9-0.7-1.6-1.6-1.6
			c-0.9,0-1.6,0.7-1.6,1.6C16.2,15.5,16.9,16.2,17.8,16.2L17.8,16.2z M17.8,14.1c0.3,0,0.5,0.2,0.5,0.5c0,0.3-0.2,0.5-0.5,0.5
			c-0.3,0-0.5-0.2-0.5-0.5C17.2,14.3,17.5,14.1,17.8,14.1L17.8,14.1z M17.8,14.1"/>
		<path clip-path="url(#SVGID_2_)" fill="#5D5D5D" d="M23.7,2.2h-1.1V1.7c0-0.9-0.7-1.6-1.6-1.6c-0.9,0-1.6,0.7-1.6,1.6v0.5H6.5V1.7
			c0-0.9-0.7-1.6-1.6-1.6C4,0.1,3.2,0.8,3.2,1.7v0.5H2.2C1,2.2,0,3.2,0,4.4v19.4c0,1.2,1,2.2,2.2,2.2h21.5c1.2,0,2.2-1,2.2-2.2V4.4
			C25.9,3.2,24.9,2.2,23.7,2.2L23.7,2.2z M20.5,3.3V1.7c0-0.3,0.2-0.5,0.5-0.5c0.3,0,0.5,0.2,0.5,0.5v2.2c0,0.3-0.2,0.5-0.5,0.5
			c-0.3,0-0.5-0.2-0.5-0.5V3.3z M4.3,3.3V1.7c0-0.3,0.2-0.5,0.5-0.5c0.3,0,0.5,0.2,0.5,0.5v2.2c0,0.3-0.2,0.5-0.5,0.5
			c-0.3,0-0.5-0.2-0.5-0.5V3.3z M24.8,23.8c0,0.6-0.5,1.1-1.1,1.1H2.2c-0.6,0-1.1-0.5-1.1-1.1V7.6h23.7V23.8z M24.8,6.5H1.1V4.4
			c0-0.6,0.5-1.1,1.1-1.1h1.1v0.5c0,0.9,0.7,1.6,1.6,1.6c0.9,0,1.6-0.7,1.6-1.6V3.3h12.9v0.5c0,0.9,0.7,1.6,1.6,1.6
			c0.9,0,1.6-0.7,1.6-1.6V3.3h1.1c0.6,0,1.1,0.5,1.1,1.1V6.5z M24.8,6.5"/>
	</g>
</g>
</svg>
