<?xml version="1.0" encoding="utf-8"?>
<!-- Generator: Adobe Illustrator 17.1.0, SVG Export Plug-In . SVG Version: 6.00 Build 0)  -->
<!DOCTYPE svg PUBLIC "-//W3C//DTD SVG 1.1//EN" "http://www.w3.org/Graphics/SVG/1.1/DTD/svg11.dtd">
<svg version="1.1" id="Layer_1" xmlns="http://www.w3.org/2000/svg" xmlns:xlink="http://www.w3.org/1999/xlink" x="0px" y="0px"
	 viewBox="0 0 15 20" enable-background="new 0 0 15 20" xml:space="preserve">
<g>
	<path fill="#767677" stroke="#767677" stroke-miterlimit="10" d="M1,19.1c0,0.1,0,0.1,0.1,0.2c0.1,0,0.1,0,0.2,0l4.6-1.7
		c0,0,0.1,0,0.1-0.1l6.6-10.4c0,0,0-0.1,0-0.1c0,0,0.1,0,0.1-0.1l1.7-2.7c0.1-0.1,0-0.2-0.1-0.3L9.3,0.7C9.2,0.7,9,0.7,9,0.8L8,2.4
		C7.9,2.5,7.9,2.7,8,2.7c0.1,0.1,0.2,0,0.3-0.1l0.9-1.4L14,4.2l-1.6,2.5l-4.9-3c-0.1-0.1-0.2,0-0.3,0.1L0.6,14.1c0,0,0,0.1,0,0.1
		L1,19.1z M7.4,4.1l2.2,1.4l-5,7.9c-0.1,0.1,0,0.2,0.1,0.3c0.1,0.1,0.2,0,0.3-0.1l5-7.9L12.1,7L5.7,17.2l-4.3,1.5L1,14.7l2,1.2
		c0.1,0.1,0.2,0,0.3-0.1c0.1-0.1,0-0.2-0.1-0.3L1,14.2L7.4,4.1z M7.4,4.1"/>
</g>
</svg>
