<?xml version="1.0" encoding="utf-8"?>
<!-- Generator: Adobe Illustrator 17.1.0, SVG Export Plug-In . SVG Version: 6.00 Build 0)  -->
<!DOCTYPE svg PUBLIC "-//W3C//DTD SVG 1.1//EN" "http://www.w3.org/Graphics/SVG/1.1/DTD/svg11.dtd">
<svg version="1.1" id="Layer_1" xmlns="http://www.w3.org/2000/svg" xmlns:xlink="http://www.w3.org/1999/xlink" x="0px" y="0px"
	 viewBox="0 0 18 23" enable-background="new 0 0 18 23" xml:space="preserve">
<g>
	<g>
		<defs>
			<rect id="SVGID_1_" width="18" height="23"/>
		</defs>
		<clipPath id="SVGID_2_">
			<use xlink:href="#SVGID_1_"  overflow="visible"/>
		</clipPath>
		<path clip-path="url(#SVGID_2_)" fill="#5D5D5D" d="M9,12.5c-1.2,0-2.1,0.9-2.1,2.1c0,0.7,0.3,1.3,0.9,1.7V18
			c0,0.7,0.6,1.3,1.3,1.3c0.7,0,1.3-0.6,1.3-1.3v-1.7c0.5-0.4,0.9-1,0.9-1.7C11.1,13.5,10.2,12.5,9,12.5L9,12.5z M9.4,15.8V18
			c0,0.3-0.2,0.4-0.4,0.4c-0.3,0-0.4-0.2-0.4-0.4v-2.2c-0.5-0.2-0.9-0.7-0.9-1.2c0-0.7,0.6-1.3,1.3-1.3c0.7,0,1.3,0.6,1.3,1.3
			C10.3,15.2,9.9,15.6,9.4,15.8L9.4,15.8z M9.4,15.8"/>
		<path clip-path="url(#SVGID_2_)" fill="#5D5D5D" d="M15.4,9.2V6.3C15.4,2.8,12.5,0,9,0C5.5,0,2.6,2.8,2.6,6.3v2.9
			C1.1,9.2,0,10.3,0,11.7v8.4c0,1.4,1.1,2.5,2.6,2.5h12.9c1.5,0,2.6-1.1,2.6-2.5v-8.4C18,10.4,16.9,9.2,15.4,9.2L15.4,9.2z M3.4,6.3
			c0-3,2.5-5.4,5.6-5.4c3.1,0,5.6,2.4,5.6,5.4v2.9h-0.9V6.3c0-2.5-2.1-4.6-4.7-4.6c-2.6,0-4.7,2.1-4.7,4.6v2.9H3.4V6.3z M12.9,6.3
			v2.9H5.1V6.3c0-2.1,1.7-3.8,3.9-3.8C11.1,2.5,12.9,4.2,12.9,6.3L12.9,6.3z M17.1,20.1c0,0.9-0.8,1.7-1.7,1.7H2.6
			c-0.9,0-1.7-0.8-1.7-1.7v-8.4c0-0.9,0.8-1.7,1.7-1.7h12.9c0.9,0,1.7,0.8,1.7,1.7V20.1z M17.1,20.1"/>
	</g>
</g>
</svg>
