<?xml version="1.0" encoding="utf-8"?>
<!-- Generator: Adobe Illustrator 17.1.0, SVG Export Plug-In . SVG Version: 6.00 Build 0)  -->
<!DOCTYPE svg PUBLIC "-//W3C//DTD SVG 1.1//EN" "http://www.w3.org/Graphics/SVG/1.1/DTD/svg11.dtd">
<svg version="1.1" id="Layer_1" xmlns="http://www.w3.org/2000/svg" xmlns:xlink="http://www.w3.org/1999/xlink" x="0px" y="0px"
	 viewBox="0 0 38 18" enable-background="new 0 0 38 18" xml:space="preserve">
<g>
	<path fill="#777777" d="M29,18L29,18c-3.6,0-6.9-2.2-8.3-5.5c-0.1-0.2-0.3-0.3-0.5-0.3h-2.7c-0.1,0-0.3,0.1-0.4,0.2L15.5,14
		l-1.7-1.7c-0.1-0.1-0.2-0.2-0.4-0.2h-0.9c-0.1,0-0.3,0.1-0.4,0.2L10.4,14l0,0h0L10,13.6l-1.3-1.3c-0.1-0.1-0.2-0.2-0.4-0.2H7.4
		c-0.1,0-0.3,0.1-0.4,0.2L5.3,14l-1.7-1.7c-0.1-0.1-0.2-0.2-0.4-0.2H3.2C1.4,12.1,0,10.7,0,9c0-1.7,1.4-3.1,3.1-3.1l17.1,0
		c0.2,0,0.4-0.1,0.5-0.3C22.1,2.2,25.4,0,29,0c4.9,0,9,4,9,9c0,2.4-0.9,4.6-2.6,6.3C33.6,17,31.4,18,29,18L29,18z M17.5,11h2.7
		c0.7,0,1.3,0.4,1.5,1c1.2,2.9,4.1,4.8,7.3,4.8c2.1,0,4.1-0.8,5.6-2.3c1.5-1.5,2.3-3.5,2.3-5.6c0-4.3-3.5-7.9-7.9-7.9
		c-3.2,0-6.1,1.9-7.3,4.8c-0.3,0.6-0.8,1-1.5,1H3.2c-1.1,0-2,0.9-2,2c0,1.1,0.9,2,2,2h0.1c0.4,0,0.8,0.2,1.2,0.5l0.9,0.9l0.9-0.9
		C6.5,11.2,6.9,11,7.4,11h0.9c0.4,0,0.8,0.2,1.2,0.5l0.9,0.9l0.9-0.9c0.3-0.3,0.7-0.5,1.2-0.5h0.9c0.4,0,0.9,0.2,1.2,0.5l0.9,0.9
		l0.9-0.9C16.6,11.2,17.1,11,17.5,11L17.5,11z M32.7,11.7c-1.5,0-2.7-1.2-2.7-2.7c0-1.5,1.2-2.7,2.7-2.7c1.5,0,2.7,1.2,2.7,2.7
		C35.3,10.5,34.1,11.7,32.7,11.7L32.7,11.7z M32.7,7.4c-0.9,0-1.6,0.7-1.6,1.6c0,0.9,0.7,1.6,1.6,1.6c0.9,0,1.6-0.7,1.6-1.6
		S33.5,7.4,32.7,7.4L32.7,7.4z M32.7,7.4"/>
</g>
</svg>
