<?xml version="1.0" encoding="utf-8"?>
<!-- Generator: Adobe Illustrator 17.1.0, SVG Export Plug-In . SVG Version: 6.00 Build 0)  -->
<!DOCTYPE svg PUBLIC "-//W3C//DTD SVG 1.1//EN" "http://www.w3.org/Graphics/SVG/1.1/DTD/svg11.dtd">
<svg version="1.1" id="Layer_1" xmlns="http://www.w3.org/2000/svg" xmlns:xlink="http://www.w3.org/1999/xlink" x="0px" y="0px"
	 viewBox="0 0 33 36" enable-background="new 0 0 33 36" xml:space="preserve">
<g>
	<path fill="#777777" d="M12.1,4.2c0,0.3-0.3,0.6-0.6,0.6c-0.3,0-0.6-0.3-0.6-0.6c0-0.3,0.3-0.6,0.6-0.6C11.9,3.6,12.1,3.9,12.1,4.2
		L12.1,4.2z M12.1,4.2"/>
	<path fill="#777777" d="M32.3,9.1l-1.5-1.4c-1-1-2.4-1-3.4,0L23,12V8.4C23,7.1,22,6,20.6,6h-1.2c0-1.3-1.1-2.4-2.4-2.4h-1.2
		c0-2-1.7-3.6-3.6-3.6h-1.2C8.9,0,7.3,1.6,7.3,3.6H6.1C4.7,3.6,3.6,4.7,3.6,6H2.4C1.1,6,0,7.1,0,8.4v25.2C0,34.9,1.1,36,2.4,36h18.2
		c1.3,0,2.4-1.1,2.4-2.4v-12l9.2-9.1C33.2,11.5,33.2,10.1,32.3,9.1L32.3,9.1z M4.9,6c0-0.7,0.5-1.2,1.2-1.2h2.4V3.6
		c0-1.3,1.1-2.4,2.4-2.4h1.2c1.3,0,2.4,1.1,2.4,2.4v1.2H17c0.7,0,1.2,0.5,1.2,1.2v1.2c0,0.7-0.5,1.2-1.2,1.2H6.1
		c-0.7,0-1.2-0.5-1.2-1.2V6z M21.8,33.6c0,0.7-0.5,1.2-1.2,1.2H2.4c-0.6,0-1.2-0.5-1.2-1.2V8.4c0-0.7,0.5-1.2,1.2-1.2h1.2
		c0,1.3,1.1,2.4,2.4,2.4H17c1.3,0,2.4-1.1,2.4-2.4h1.2c0.6,0,1.2,0.5,1.2,1.2v4.8l-12.1,12l-1.2,6l6.1-1.2l7.3-7.2V33.6z M10.8,25.9
		l3,3l-3.8,0.7L10.8,25.9z M14.8,28.1L11.6,25l13.7-13.6l3.2,3.1L14.8,28.1z M31.4,11.6l-2.1,2l-3.2-3.1l2.1-2C28.8,8,29.5,8,30,8.5
		l1.5,1.4C31.9,10.4,31.9,11.2,31.4,11.6L31.4,11.6z M31.4,11.6"/>
</g>
</svg>
