<?xml version="1.0" encoding="utf-8"?>
<!-- Generator: Adobe Illustrator 17.1.0, SVG Export Plug-In . SVG Version: 6.00 Build 0)  -->
<!DOCTYPE svg PUBLIC "-//W3C//DTD SVG 1.1//EN" "http://www.w3.org/Graphics/SVG/1.1/DTD/svg11.dtd">
<svg version="1.1" id="Layer_1" xmlns="http://www.w3.org/2000/svg" xmlns:xlink="http://www.w3.org/1999/xlink" x="0px" y="0px"
	 viewBox="0 0 66 66" enable-background="new 0 0 66 66" xml:space="preserve">
<g>
	<circle fill="#E9F3FA" cx="33" cy="33" r="32.5"/>
	<g>
		<path fill="#808080" d="M45.3,55.1H21.1c-2.3,0-4.1-1.9-4.1-4.1l-3.4-16.1c-1.3-0.6-2.1-2-2.1-3.4c0-2.1,1.7-3.9,3.9-3.9h35.4
			c2.1,0,3.9,1.7,3.9,3.9c0,1.2-0.6,2.4-1.6,3.1l-3.5,16.6C49.5,53.3,47.6,55.1,45.3,55.1L45.3,55.1z M15.3,30.2
			c-0.7,0-1.3,0.6-1.3,1.3c0,0.6,0.4,1.1,1,1.2c0.5,0.1,0.8,0.5,0.9,1l3.6,17c0,1.1,0.7,1.8,1.6,1.8h24.2c0.9,0,1.6-0.7,1.6-1.6
			l3.7-17.4c0.1-0.4,0.3-0.7,0.7-0.9c0.5-0.2,0.8-0.7,0.8-1.2c0-0.7-0.6-1.3-1.3-1.3H15.3z M15.3,30.2"/>
		<path fill="#808080" d="M24.4,47.7c0,0.5-0.4,0.9-0.9,0.9h-0.2c-0.5,0-0.9-0.4-0.9-0.9V37.2c0-0.5,0.4-0.9,0.9-0.9h0.2
			c0.5,0,0.9,0.4,0.9,0.9V47.7z M24.4,47.7"/>
		<path fill="#808080" d="M30.9,47.7c0,0.5-0.4,0.9-0.9,0.9h-0.2c-0.5,0-0.9-0.4-0.9-0.9V37.2c0-0.5,0.4-0.9,0.9-0.9h0.2
			c0.5,0,0.9,0.4,0.9,0.9V47.7z M30.9,47.7"/>
		<path fill="#808080" d="M37.5,47.7c0,0.5-0.4,0.9-0.9,0.9h-0.2c-0.5,0-0.9-0.4-0.9-0.9V37.2c0-0.5,0.4-0.9,0.9-0.9h0.2
			c0.5,0,0.9,0.4,0.9,0.9V47.7z M37.5,47.7"/>
		<path fill="#808080" d="M44,47.7c0,0.5-0.4,0.9-0.9,0.9h-0.2c-0.5,0-0.9-0.4-0.9-0.9V37.2c0-0.5,0.4-0.9,0.9-0.9h0.2
			c0.5,0,0.9,0.4,0.9,0.9L44,47.7L44,47.7z M44,47.7"/>
		<path fill="#808080" d="M21,23.1c0.8-5.9,5.9-10.4,12.1-10.4c6.1,0,11.2,4.5,12.1,10.4c0.1,2,2.7,1.7,2.7,0
			C46.9,15.7,40.7,9.9,33,9.9c-7.6,0-13.9,5.7-14.8,13.1C18.3,25.2,21,25.3,21,23.1L21,23.1z M21,23.1"/>
	</g>
</g>
</svg>
