<?xml version="1.0" encoding="utf-8"?>
<!-- Generator: Adobe Illustrator 17.1.0, SVG Export Plug-In . SVG Version: 6.00 Build 0)  -->
<!DOCTYPE svg PUBLIC "-//W3C//DTD SVG 1.1//EN" "http://www.w3.org/Graphics/SVG/1.1/DTD/svg11.dtd">
<svg version="1.1" id="Layer_1" xmlns="http://www.w3.org/2000/svg" xmlns:xlink="http://www.w3.org/1999/xlink" x="0px" y="0px"
	 viewBox="0 0 81 72" enable-background="new 0 0 81 72" xml:space="preserve">
<g>
	<g>
		<defs>
			<rect id="SVGID_1_" y="0.5" width="81" height="71.1"/>
		</defs>
		<clipPath id="SVGID_2_">
			<use xlink:href="#SVGID_1_"  overflow="visible"/>
		</clipPath>
		<path clip-path="url(#SVGID_2_)" fill="#F4DA56" d="M76.3,21.9H34.1l12-3.2c0.6-0.2,1-0.6,1.2-1.2c0.2-0.6,0-1.2-0.4-1.6L31.9,1
			c-0.4-0.4-1.1-0.6-1.6-0.4c-0.6,0.2-1,0.6-1.2,1.2l-5.4,20.2L18.3,1.7c-0.2-0.6-0.6-1-1.2-1.2c-0.6-0.2-1.2,0-1.6,0.4L0.5,15.9
			c-0.4,0.4-0.6,1.1-0.4,1.6c0.2,0.6,0.6,1,1.2,1.2l12,3.2h-1.5c-2.5,0-4.6,2.1-4.6,4.6v40.3c0,2.5,2.1,4.6,4.6,4.6h64.5
			c2.5,0,4.6-2.1,4.6-4.6V26.5C80.9,24,78.8,21.9,76.3,21.9L76.3,21.9z M61.6,47h15.8v15.8L61.6,47z M77.4,43.6H58.2l-6.9-6.9h26.1
			V43.6z M77.4,26.5v6.7H47.9L40,25.3h36.3C76.9,25.3,77.4,25.9,77.4,26.5L77.4,26.5z M31.6,5.5l10.7,10.7l-14.7,3.9L31.6,5.5z
			 M15.7,5.5l3.9,14.7L5,16.2L15.7,5.5z M10.6,36.7h9.1l6.9,6.9H10.6V36.7z M10.6,33.3v-5.7l5.7,5.7H10.6z M10.6,66.9V47h19.4
			L51,68.1H11.8C11.1,68.1,10.6,67.5,10.6,66.9L10.6,66.9z M76.3,68.1H55.8L13.1,25.3h22l42.1,42.1C77.1,67.8,76.7,68.1,76.3,68.1
			L76.3,68.1z M76.3,68.1"/>
	</g>
</g>
</svg>
