<?xml version="1.0" encoding="utf-8"?>
<!-- Generator: Adobe Illustrator 17.1.0, SVG Export Plug-In . SVG Version: 6.00 Build 0)  -->
<!DOCTYPE svg PUBLIC "-//W3C//DTD SVG 1.1//EN" "http://www.w3.org/Graphics/SVG/1.1/DTD/svg11.dtd">
<svg version="1.1" id="Layer_1" xmlns="http://www.w3.org/2000/svg" xmlns:xlink="http://www.w3.org/1999/xlink" x="0px" y="0px"
	 viewBox="0 0 86 68" enable-background="new 0 0 86 68" xml:space="preserve">
<g>
	<g>
		<path fill="#F7DA5E" d="M8.1,5.3c-3.9,2.1-5.6,7.2-5.6,7.2l-1.8-0.3c-0.2,0-0.5,0.1-0.6,0.3c-0.1,0.2-0.1,0.5,0,0.7l3.4,5.6
			c0.2,0.4,0.6,0.6,1,0.7c0.4,0.1,0.8,0,1.2-0.3l5.3-4.2c0.2-0.2,0.3-0.4,0.2-0.7c-0.1-0.2-0.3-0.5-0.5-0.5l-2.3-0.4
			c0,0-0.5-1.4,1.1-4.6c1.6-3.2,5.3-3.5,5.3-3.5C15,5,14.7,4.6,14.4,4.5C13.4,4.2,11,3.7,8.1,5.3z"/>
	</g>
	<g>
		<path fill="#F7DA5E" d="M81.5,46.7c-0.4-0.1-0.8,0-1.2,0.3L75,51.2c-0.2,0.1-0.3,0.4-0.2,0.7c0.1,0.2,0.2,0.5,0.5,0.5l2.3,0.4
			c0,0,0.5,1.5-1.1,4.6c-1.2,2.4-3.6,3.2-4.7,3.4c-0.3,0.1-0.5,0.1-0.5,0.1c-0.1,0.3,0.1,0.6,0.4,0.7c0,0,0,0,0,0
			c1,0.4,3.4,0.9,6.3-0.7c3.9-2.1,5.6-7.2,5.6-7.2l1.8,0.3c0.2,0,0.5-0.1,0.6-0.3c0.1-0.2,0.1-0.5,0-0.7l-3.4-5.6
			C82.3,47,81.9,46.8,81.5,46.7z"/>
	</g>
	<g>
		<defs>
			<rect id="SVGID_1_" x="5.5" y="0" width="73.6" height="68"/>
		</defs>
		<clipPath id="SVGID_2_">
			<use xlink:href="#SVGID_1_"  overflow="visible"/>
		</clipPath>
		<path clip-path="url(#SVGID_2_)" fill="#F7DA5E" d="M18.9,67.7c-2.3,0-4.4-1.5-5.1-3.8L5.8,37.5c-0.9-2.8,0.7-5.8,3.5-6.6
			l12.3-3.8V5c0-2.8,2.2-5,5-5h47.2c2.8,0,5,2.2,5,5v28.3c0,2.8-2.2,5-5,5h-8l2.7,8.9c0.4,1.4,0.3,2.8-0.4,4.1
			c-0.7,1.3-1.8,2.2-3.1,2.6L20.5,67.5C20,67.6,19.4,67.7,18.9,67.7L18.9,67.7z M10.9,47.2l4.9,16.1c0.5,1.7,2.3,2.7,4,2.1
			l44.5-13.6c1.7-0.5,2.7-2.3,2.1-4l-2.9-9.4h-6.4l1,3.3c0.1,0.3,0.1,0.6-0.1,0.8c-0.1,0.2-0.4,0.4-0.6,0.5L20.2,54.5
			c-0.6,0.2-1.1-0.1-1.3-0.7l-1.2-3.9c-0.1-0.3-0.1-0.6,0.1-0.8c0.1-0.2,0.4-0.4,0.6-0.5l33-10.1H39.2L10.9,47.2z M20.1,50.3
			l0.6,1.9l35.3-10.8l-0.6-1.9L20.1,50.3z M8.3,38.5l2,6.7L32,38.5h-5.1c-1.5,0-2.8-0.6-3.8-1.6c-0.7-0.7-1.2-1.6-1.4-2.5L8.3,38.5z
			 M21.6,29.3L9.9,32.8c-1.6,0.5-2.5,2.1-2.2,3.6l14-4.2V29.3z M24.6,35.4c0.5,0.5,1.2,0.8,2,0.8h47.2c1.6,0,2.9-1.3,2.9-2.9V5
			c0-1.6-1.3-2.9-2.9-2.9H26.6c-1.6,0-2.9,1.3-2.9,2.9v28c0,0,0,0,0,0v0.1C23.7,34.1,24.1,34.9,24.6,35.4L24.6,35.4z M72.6,27.7
			h-7.3c-0.6,0-1-0.5-1-1s0.5-1,1-1h7.3c0.6,0,1,0.5,1,1S73.2,27.7,72.6,27.7L72.6,27.7z M60.2,27.7h-7.3c-0.6,0-1-0.5-1-1
			s0.5-1,1-1h7.3c0.6,0,1,0.5,1,1S60.8,27.7,60.2,27.7L60.2,27.7z M47.8,27.7h-7.3c-0.6,0-1-0.5-1-1s0.5-1,1-1h7.3c0.6,0,1,0.5,1,1
			S48.4,27.7,47.8,27.7L47.8,27.7z M35.4,27.7H28c-0.6,0-1-0.5-1-1s0.5-1,1-1h7.3c0.6,0,1,0.5,1,1S35.9,27.7,35.4,27.7L35.4,27.7z
			 M33.6,20.2h-3.8c-1.5,0-2.8-1.2-2.8-2.8v-3.2c0-1.5,1.2-2.8,2.8-2.8h3.8c1.5,0,2.8,1.2,2.8,2.8v3.2C36.4,19,35.1,20.2,33.6,20.2
			L33.6,20.2z M29.8,13.6c-0.4,0-0.7,0.3-0.7,0.7v3.2c0,0.4,0.3,0.7,0.7,0.7h3.8c0.4,0,0.7-0.3,0.7-0.7v-3.2c0-0.4-0.3-0.7-0.7-0.7
			H29.8z M29.8,13.6"/>
	</g>
</g>
</svg>
