<?xml version="1.0" encoding="utf-8"?>
<!-- Generator: Adobe Illustrator 17.1.0, SVG Export Plug-In . SVG Version: 6.00 Build 0)  -->
<!DOCTYPE svg PUBLIC "-//W3C//DTD SVG 1.1//EN" "http://www.w3.org/Graphics/SVG/1.1/DTD/svg11.dtd">
<svg version="1.1" id="Layer_1" xmlns="http://www.w3.org/2000/svg" xmlns:xlink="http://www.w3.org/1999/xlink" x="0px" y="0px"
	 viewBox="0 0 38 38" enable-background="new 0 0 38 38" xml:space="preserve" width="38px" height="38px">
<g>
	<g>
		<path fill="#767677" d="M19,37.5C8.8,37.5,0.5,29.2,0.5,19C0.5,8.8,8.8,0.5,19,0.5c3.5,0,6.8,1,9.8,2.8c0.5,0.3,0.7,1,0.4,1.5
			c-0.3,0.5-1,0.7-1.5,0.4C25,3.5,22.1,2.7,19,2.7C10,2.7,2.7,10,2.7,19c0,9,7.3,16.3,16.3,16.3c9,0,16.3-7.3,16.3-16.3
			c0-1.8-0.3-3.6-0.9-5.3c-0.2-0.6,0.1-1.2,0.7-1.4c0.6-0.2,1.2,0.1,1.4,0.7c0.7,1.9,1,3.9,1,6C37.5,29.2,29.2,37.5,19,37.5L19,37.5
			z M19,37.5"/>
		<path fill="#767677" d="M19,38C8.5,38,0,29.5,0,19C0,8.5,8.5,0,19,0c3.5,0,7,1,10,2.8c0.4,0.2,0.6,0.6,0.7,1
			c0.1,0.4,0,0.8-0.2,1.2c-0.4,0.7-1.5,1-2.2,0.5C24.8,4,22,3.2,19,3.2C10.3,3.2,3.2,10.3,3.2,19c0,8.7,7.1,15.8,15.8,15.8
			c8.7,0,15.8-7.1,15.8-15.8c0-1.8-0.3-3.5-0.8-5.1c-0.3-0.8,0.2-1.7,1-2c0.8-0.3,1.7,0.2,2,1c0.7,2,1,4,1,6.1
			C38,29.5,29.5,38,19,38z M19,1C9.1,1,1,9.1,1,19s8.1,18,18,18s18-8.1,18-18c0-2-0.3-4-1-5.8c-0.1-0.3-0.5-0.5-0.8-0.4
			c-0.3,0.1-0.5,0.5-0.4,0.8c0.6,1.7,0.9,3.6,0.9,5.4c0,9.3-7.5,16.8-16.8,16.8S2.2,28.3,2.2,19S9.7,2.2,19,2.2
			c3.1,0,6.2,0.9,8.9,2.5c0.3,0.2,0.7,0.1,0.8-0.2c0.1-0.1,0.1-0.3,0.1-0.5c0-0.2-0.1-0.3-0.3-0.4C25.7,1.9,22.4,1,19,1z"/>
	</g>
	<g>
		<path fill="#767677" d="M19,25.3c-0.3,0-0.5-0.1-0.7-0.3l-8.7-8.2c-0.4-0.4-0.5-1.1,0-1.5c0.4-0.4,1.1-0.5,1.5,0l7.9,7.4l14.3-17
			c0.4-0.5,1.1-0.5,1.5-0.1c0.5,0.4,0.5,1.1,0.1,1.5l-15,17.9C19.6,25.1,19.4,25.3,19,25.3C19,25.3,19,25.3,19,25.3L19,25.3z
			 M19,25.3"/>
		<path fill="#767677" d="M19,25.8c-0.4,0-0.8-0.2-1.1-0.4l-8.7-8.2c-0.6-0.6-0.7-1.6-0.1-2.2c0.6-0.6,1.6-0.6,2.2-0.1l7.5,7
			l14-16.6c0.5-0.6,1.6-0.7,2.2-0.2c0.7,0.6,0.7,1.6,0.2,2.2l-15,17.9C19.9,25.5,19.5,25.7,19,25.8L19,25.8z M10.3,15.4
			c-0.2,0-0.3,0.1-0.4,0.2c-0.2,0.2-0.2,0.6,0,0.9l8.7,8.2c0.1,0.1,0.3,0.2,0.4,0.2v0.5l0-0.5c0.2,0,0.3-0.1,0.4-0.2l15-17.9
			c0.2-0.3,0.2-0.6-0.1-0.8c-0.4-0.3-0.7-0.1-0.8,0.1L18.9,23.3l-8.2-7.7C10.6,15.5,10.4,15.4,10.3,15.4z"/>
	</g>
</g>
</svg>
