<?xml version="1.0" encoding="utf-8"?>
<!-- Generator: Adobe Illustrator 17.1.0, SVG Export Plug-In . SVG Version: 6.00 Build 0)  -->
<!DOCTYPE svg PUBLIC "-//W3C//DTD SVG 1.1//EN" "http://www.w3.org/Graphics/SVG/1.1/DTD/svg11.dtd">
<svg version="1.1" id="Layer_1" xmlns="http://www.w3.org/2000/svg" xmlns:xlink="http://www.w3.org/1999/xlink" x="0px" y="0px"
	 viewBox="0 0 212 55" enable-background="new 0 0 212 55" xml:space="preserve">
<g>
	<path fill="#F8E582" d="M172.4,54.4c-1.6,1-2.1,0.5-1.2-1.1l12.1-22.4c0.9-1.7,0.9-4.4,0-6.1L171.1,1.6c-0.9-1.7-0.3-2.2,1.3-1.2
		l38,25.1c1.6,1,1.6,2.8,0,3.8L172.4,54.4z"/>
	<path fill="#F8E582" d="M191.1,27.4c0,8.7-7.5,15.8-16.7,15.8H16.3C7.1,43.1-0.4,36-0.4,27.4s7.5-15.8,16.7-15.8h158.1
		C183.6,11.6,191.1,18.7,191.1,27.4z"/>
</g>
</svg>
